<svg id="Layer_1" data-name="Layer 1" xmlns="http://www.w3.org/2000/svg" viewBox="0 0 64 64"><defs><style>.cls-1{fill:#1d6fb8;}.cls-2{fill:#fff;}</style></defs><title>15_音频</title><rect class="cls-1" width="64" height="64"/><path class="cls-2" d="M49.31,32a17.31,17.31,0,0,0-34.62,0,16.84,16.84,0,0,0,4.49,11.45A7,7,0,0,0,26,49h3V35H26a7,7,0,0,0-6.47,4.35,14.43,14.43,0,1,1,24.86,0A7,7,0,0,0,38,35H35V49h3a7,7,0,0,0,6.87-5.54A16.86,16.86,0,0,0,49.31,32ZM26,37.77v8.66s-4.33,0-4.33-4.33S26,37.77,26,37.77Zm12,8.66V37.77s4.33,0,4.33,4.33S38,46.43,38,46.43Z"/></svg>