<?xml version="1.0" encoding="utf-8"?>
<!-- Generator: Adobe Illustrator 19.2.0, SVG Export Plug-In . SVG Version: 6.00 Build 0)  -->
<svg version="1.1" id="Layer_1" xmlns="http://www.w3.org/2000/svg" xmlns:xlink="http://www.w3.org/1999/xlink" x="0px" y="0px"
	 viewBox="0 0 64 64" style="enable-background:new 0 0 64 64;" xml:space="preserve">
<style type="text/css">
	.st0{fill:#2A579A;}
	.st1{enable-background:new    ;}
	.st2{fill:#FFFFFF;}
</style>
<title>15_word</title>
<rect class="st0" width="64" height="64"/>
<g class="st1">
	<path class="st2" d="M49.9,18.8L42.2,46h-4.1l-5.5-19.6c-0.2-0.9-0.4-1.8-0.4-2.8h-0.1c-0.1,1-0.2,1.9-0.5,2.8L26.1,46H22
		l-7.9-27.2H18l5.6,20.6c0.2,0.9,0.4,1.9,0.4,2.8h0.1c0.1-0.7,0.3-1.6,0.6-2.8l5.9-20.6h3.5l5.6,20.7c0.2,0.7,0.3,1.5,0.5,2.6h0.1
		c0.1-0.8,0.2-1.7,0.5-2.7l5.3-20.7H49.9z"/>
</g>
</svg>
